HIERARCHY
ROOT Hips
{
	OFFSET 0.000000 100.481300 0.000000
	CHANNELS 6 Xposition Yposition Zposition Xrotation Yrotation Zrotation
	JOINT Spine
	{
		OFFSET -0.279200 12.230698 -2.892100
		CHANNELS 3 Xrotation Yrotation Zrotation
		JOINT Spine1
		{
			OFFSET -0.325700 14.269203 -3.374200
			CHANNELS 3 Xrotation Yrotation Zrotation
			JOINT Spine2
			{
				OFFSET -0.372300 16.307602 -0.352600
				CHANNELS 3 Xrotation Yrotation Zrotation
				JOINT Neck
				{
					OFFSET -0.418800 17.814194 8.416900
					CHANNELS 3 Xrotation Yrotation Zrotation
					JOINT Head
					{
						OFFSET 0.000000 7.031097 3.806800
						CHANNELS 3 Xrotation Yrotation Zrotation
						JOINT HeadTop_End
						{
							OFFSET 0.000000 24.646606 12.978600
							CHANNELS 3 Xrotation Yrotation Zrotation
							End Site
							{
								OFFSET 0.000000 27.854965 0.000000
							}
						}
					}
				}
				JOINT LeftShoulder
				{
					OFFSET 16.952999 14.495407 -7.737500
					CHANNELS 3 Xrotation Yrotation Zrotation
					JOINT LeftArm
					{
						OFFSET 9.308998 -2.777710 0.208600
						CHANNELS 3 Xrotation Yrotation Zrotation
						JOINT LeftForeArm
						{
							OFFSET 29.972298 0.000000 0.000000
							CHANNELS 3 Xrotation Yrotation Zrotation
							JOINT LeftHand
							{
								OFFSET 26.026505 0.000000 0.000000
								CHANNELS 3 Xrotation Yrotation Zrotation
								JOINT LeftHandThumb1
								{
									OFFSET 12.240501 -7.147949 9.207150
									CHANNELS 3 Xrotation Yrotation Zrotation
									JOINT LeftHandThumb2
									{
										OFFSET 4.138618 -2.389435 2.389433
										CHANNELS 3 Xrotation Yrotation Zrotation
										JOINT LeftHandThumb3
										{
											OFFSET 2.726913 -1.574387 1.574386
											CHANNELS 3 Xrotation Yrotation Zrotation
											JOINT LeftHandThumb4
											{
												OFFSET 3.941010 -2.275345 2.275342
												CHANNELS 3 Xrotation Yrotation Zrotation
												End Site
												{
													OFFSET -0.005798 5.087799 0.009903
												}
											}
										}
									}
								}
								JOINT LeftHandIndex1
								{
									OFFSET 24.424698 -1.985611 5.953459
									CHANNELS 3 Xrotation Yrotation Zrotation
									JOINT LeftHandIndex2
									{
										OFFSET 6.426697 0.000000 0.000000
										CHANNELS 3 Xrotation Yrotation Zrotation
										JOINT LeftHandIndex3
										{
											OFFSET 5.337898 0.000000 0.000000
											CHANNELS 3 Xrotation Yrotation Zrotation
											JOINT LeftHandIndex4
											{
												OFFSET 4.409401 0.000000 0.000000
												CHANNELS 3 Xrotation Yrotation Zrotation
												End Site
												{
													OFFSET 0.000000 4.409363 0.014373
												}
											}
										}
									}
								}
								JOINT LeftHandMiddle1
								{
									OFFSET 23.810104 0.000000 0.000000
									CHANNELS 3 Xrotation Yrotation Zrotation
									JOINT LeftHandMiddle2
									{
										OFFSET 7.176498 0.000000 0.000000
										CHANNELS 3 Xrotation Yrotation Zrotation
										JOINT LeftHandMiddle3
										{
											OFFSET 6.774902 0.000000 0.000000
											CHANNELS 3 Xrotation Yrotation Zrotation
											JOINT LeftHandMiddle4
											{
												OFFSET 5.403328 0.000000 0.000000
												CHANNELS 3 Xrotation Yrotation Zrotation
												End Site
												{
													OFFSET -0.027702 5.403244 0.017414
												}
											}
										}
									}
								}
								JOINT LeftHandRing1
								{
									OFFSET 22.908401 -0.839279 -6.020567
									CHANNELS 3 Xrotation Yrotation Zrotation
									JOINT LeftHandRing2
									{
										OFFSET 6.337502 0.000000 0.000000
										CHANNELS 3 Xrotation Yrotation Zrotation
										JOINT LeftHandRing3
										{
											OFFSET 5.779297 0.000000 0.000000
											CHANNELS 3 Xrotation Yrotation Zrotation
											JOINT LeftHandRing4
											{
												OFFSET 4.965698 0.000000 0.000000
												CHANNELS 3 Xrotation Yrotation Zrotation
												End Site
												{
													OFFSET 0.000000 4.965668 0.016186
												}
											}
										}
									}
								}
								JOINT LeftHandPinky1
								{
									OFFSET 20.037003 -1.530319 -10.950146
									CHANNELS 3 Xrotation Yrotation Zrotation
									JOINT LeftHandPinky2
									{
										OFFSET 5.254700 0.000000 0.000000
										CHANNELS 3 Xrotation Yrotation Zrotation
										JOINT LeftHandPinky3
										{
											OFFSET 4.810204 0.000000 0.000000
											CHANNELS 3 Xrotation Yrotation Zrotation
											JOINT LeftHandPinky4
											{
												OFFSET 3.647202 0.000000 0.000000
												CHANNELS 3 Xrotation Yrotation Zrotation
												End Site
												{
													OFFSET 0.000000 3.647186 0.011889
												}
											}
										}
									}
								}
							}
						}
					}
				}
				JOINT RightShoulder
				{
					OFFSET -15.141001 14.495407 -7.737500
					CHANNELS 3 Xrotation Yrotation Zrotation
					JOINT RightArm
					{
						OFFSET -9.308998 -2.777710 0.208500
						CHANNELS 3 Xrotation Yrotation Zrotation
						JOINT RightForeArm
						{
							OFFSET -29.972300 0.000000 0.000000
							CHANNELS 3 Xrotation Yrotation Zrotation
							JOINT RightHand
							{
								OFFSET -26.026505 0.000000 0.000000
								CHANNELS 3 Xrotation Yrotation Zrotation
								JOINT RightHandThumb1
								{
									OFFSET -12.240601 -7.148026 9.207092
									CHANNELS 3 Xrotation Yrotation Zrotation
									JOINT RightHandThumb2
									{
										OFFSET -4.138618 -2.389435 2.389433
										CHANNELS 3 Xrotation Yrotation Zrotation
										JOINT RightHandThumb3
										{
											OFFSET -2.726974 -1.574417 1.574421
											CHANNELS 3 Xrotation Yrotation Zrotation
											JOINT RightHandThumb4
											{
												OFFSET -3.941010 -2.275345 2.275343
												CHANNELS 3 Xrotation Yrotation Zrotation
												End Site
												{
													OFFSET 0.005814 5.087799 0.009927
												}
											}
										}
									}
								}
								JOINT RightHandIndex1
								{
									OFFSET -24.424698 -1.985657 5.953444
									CHANNELS 3 Xrotation Yrotation Zrotation
									JOINT RightHandIndex2
									{
										OFFSET -6.426697 0.000000 0.000000
										CHANNELS 3 Xrotation Yrotation Zrotation
										JOINT RightHandIndex3
										{
											OFFSET -5.337898 0.000000 0.000000
											CHANNELS 3 Xrotation Yrotation Zrotation
											JOINT RightHandIndex4
											{
												OFFSET -4.409401 0.000000 0.000000
												CHANNELS 3 Xrotation Yrotation Zrotation
												End Site
												{
													OFFSET 0.000000 4.409363 0.014408
												}
											}
										}
									}
								}
								JOINT RightHandMiddle1
								{
									OFFSET -23.810097 0.000000 0.000000
									CHANNELS 3 Xrotation Yrotation Zrotation
									JOINT RightHandMiddle2
									{
										OFFSET -7.176498 0.000000 0.000000
										CHANNELS 3 Xrotation Yrotation Zrotation
										JOINT RightHandMiddle3
										{
											OFFSET -6.774902 0.000000 0.000000
											CHANNELS 3 Xrotation Yrotation Zrotation
											JOINT RightHandMiddle4
											{
												OFFSET -5.403328 0.000000 0.000000
												CHANNELS 3 Xrotation Yrotation Zrotation
												End Site
												{
													OFFSET 0.027702 5.403244 0.017457
												}
											}
										}
									}
								}
								JOINT RightHandRing1
								{
									OFFSET -22.908302 -0.839325 -6.020576
									CHANNELS 3 Xrotation Yrotation Zrotation
									JOINT RightHandRing2
									{
										OFFSET -6.337502 0.000000 0.000000
										CHANNELS 3 Xrotation Yrotation Zrotation
										JOINT RightHandRing3
										{
											OFFSET -5.779297 0.000000 0.000000
											CHANNELS 3 Xrotation Yrotation Zrotation
											JOINT RightHandRing4
											{
												OFFSET -4.965698 0.000000 0.000000
												CHANNELS 3 Xrotation Yrotation Zrotation
												End Site
												{
													OFFSET 0.000000 4.965668 0.016226
												}
											}
										}
									}
								}
								JOINT RightHandPinky1
								{
									OFFSET -20.037003 -1.530334 -10.950259
									CHANNELS 3 Xrotation Yrotation Zrotation
									JOINT RightHandPinky2
									{
										OFFSET -5.254700 0.000000 0.000000
										CHANNELS 3 Xrotation Yrotation Zrotation
										JOINT RightHandPinky3
										{
											OFFSET -4.810204 0.000000 0.000000
											CHANNELS 3 Xrotation Yrotation Zrotation
											JOINT RightHandPinky4
											{
												OFFSET -3.647202 0.000000 0.000000
												CHANNELS 3 Xrotation Yrotation Zrotation
												End Site
												{
													OFFSET 0.000000 3.647186 0.011917
												}
											}
										}
									}
								}
							}
						}
					}
				}
			}
		}
	}
	JOINT LeftUpLeg
	{
		OFFSET 15.427100 -6.655098 0.678600
		CHANNELS 3 Xrotation Yrotation Zrotation
		JOINT LeftLeg
		{
			OFFSET 4.081073 -39.591068 13.024000
			CHANNELS 3 Xrotation Yrotation Zrotation
			JOINT LeftFoot
			{
				OFFSET -4.081074 -37.707932 -15.979700
				CHANNELS 3 Xrotation Yrotation Zrotation
				JOINT LeftToeBase
				{
					OFFSET 5.346399 -15.068900 20.645000
					CHANNELS 3 Xrotation Yrotation Zrotation
					JOINT LeftToe_End
					{
						OFFSET 2.754700 0.931300 11.300900
						CHANNELS 3 Xrotation Yrotation Zrotation
						End Site
						{
							OFFSET 0.000000 11.669021 0.000000
						}
					}
				}
			}
		}
	}
	JOINT RightUpLeg
	{
		OFFSET -15.569500 -6.655098 0.678600
		CHANNELS 3 Xrotation Yrotation Zrotation
		JOINT RightLeg
		{
			OFFSET -4.081825 -39.591045 13.023800
			CHANNELS 3 Xrotation Yrotation Zrotation
			JOINT RightFoot
			{
				OFFSET 4.081824 -37.707954 -15.979600
				CHANNELS 3 Xrotation Yrotation Zrotation
				JOINT RightToeBase
				{
					OFFSET -5.346400 -15.068900 20.645000
					CHANNELS 3 Xrotation Yrotation Zrotation
					JOINT RightToe_End
					{
						OFFSET -2.754700 0.931300 11.300900
						CHANNELS 3 Xrotation Yrotation Zrotation
						End Site
						{
							OFFSET 0.000000 11.669021 0.000000
						}
					}
				}
			}
		}
	}
}
MOTION
Frames: 4
Frame Time: 0.033333
2.195107 72.838989 -1.714693 -5.400174 -46.432077 -0.526809 9.420031 7.435554 -1.366546 2.187715 0.989894 -0.915631 2.202829 0.982778 -0.894154 0.084651 13.220552 4.538681 8.920922 20.138143 -4.130234 -0.000000 0.000000 -0.000000 1.117178 3.546344 -8.633308 -53.487006 4.935502 -51.503007 0.000114 -106.358046 0.000105 1.988601 -7.706147 -15.869241 -6.141226 -11.690798 -6.761690 9.914104 42.595525 3.409867 -0.422816 8.108094 27.509126 0.000001 0.000003 -0.000002 0.255311 3.378222 -45.814341 5.654095 5.847747 -88.067455 2.162140 4.544808 -50.866379 -0.000000 0.000001 -0.000001 -0.461472 3.841594 -39.722683 6.450759 5.820349 -95.892871 2.182885 4.561567 -51.127743 -0.000001 0.000001 -0.000001 0.469719 4.966832 -39.799434 8.181045 5.368614 -113.503011 3.200485 5.218115 -63.022968 -0.000000 0.000001 -0.000001 -3.762434 9.063694 -45.253825 5.342533 5.829008 -85.005297 8.716836 5.103329 -119.369167 0.000002 0.000000 -0.000000 3.036125 13.027189 -5.371405 -48.713712 27.172834 83.457057 -0.000033 105.988301 0.000020 -8.345367 17.548103 8.775684 -7.341099 13.749661 7.412326 9.855799 -44.489086 -3.903281 -0.115784 -14.513088 -28.973854 0.000001 0.000001 -0.000001 -0.124376 -2.384787 45.108854 4.500589 -4.654540 88.071164 1.723219 -3.618377 50.920105 -0.000001 -0.000001 -0.000000 -0.761619 -2.932900 39.031048 5.133878 -4.632758 95.881656 1.739737 -3.631703 51.181350 0.000001 0.000001 0.000005 0.154764 -4.068816 39.122668 6.509732 -4.273594 113.462884 2.549589 -4.153918 63.067337 -0.000001 0.000000 -0.000001 -4.198873 -8.025513 44.637776 4.252916 -4.639645 85.014805 6.935970 -4.062626 119.322271 -0.000001 -0.000000 -0.000000 -34.255499 5.085939 20.300803 56.771651 -7.634006 3.672686 -20.132959 -7.078566 -17.222817 -1.594032 -0.000008 -0.000005 -0.000000 0.000002 0.000000 -19.408628 -8.980158 -34.667581 57.008000 -2.876453 -4.766545 -26.306527 -10.338593 26.246235 -0.012997 0.000020 -0.000002 -0.000000 -0.000000 -0.000000 
2.863576 75.363907 -0.885491 -2.954442 -47.355843 1.393920 9.491488 7.271229 -0.840877 2.651454 1.345231 -0.562269 2.662998 1.344038 -0.547136 1.096399 11.902587 3.835894 7.307700 17.514360 -3.573551 -0.000001 0.000000 0.000001 0.961266 2.851674 -7.397408 -55.486339 3.884071 -52.498535 0.000055 -106.601986 0.000051 -0.033924 -8.337349 -11.518150 -6.141225 -11.690798 -6.761687 9.914108 42.595525 3.409874 -0.422814 8.108086 27.509125 -0.000001 -0.000002 0.000000 0.255311 3.378218 -45.814337 5.654096 5.847751 -88.067448 2.162141 4.544808 -50.866382 0.000000 0.000000 -0.000003 -0.461472 3.841593 -39.722683 6.450758 5.820350 -95.892871 2.182887 4.561566 -51.127740 -0.000001 0.000004 -0.000000 0.469720 4.966829 -39.799437 8.181045 5.368612 -113.503011 3.200488 5.218114 -63.022968 0.000001 -0.000000 -0.000001 -3.762435 9.063693 -45.253821 5.342533 5.829007 -85.005297 8.716833 5.103330 -119.369167 0.000001 -0.000000 -0.000000 3.699881 12.734462 -5.542205 -53.408575 25.219068 84.233465 0.000150 103.801697 -0.000143 -5.786570 18.150198 8.162084 -7.341098 13.749658 7.412329 9.855797 -44.489083 -3.903274 -0.115781 -14.513086 -28.973850 -0.000004 -0.000002 -0.000002 -0.124377 -2.384787 45.108857 4.500590 -4.654537 88.071157 1.723216 -3.618380 50.920102 -0.000000 -0.000001 0.000000 -0.761618 -2.932900 39.031048 5.133883 -4.632755 95.881656 1.739743 -3.631706 51.181346 -0.000001 -0.000002 -0.000000 0.154763 -4.068817 39.122664 6.509733 -4.273596 113.462884 2.549586 -4.153917 63.067337 0.000001 -0.000001 -0.000001 -4.198873 -8.025510 44.637783 4.252919 -4.639645 85.014805 6.935970 -4.062626 119.322271 0.000000 -0.000000 -0.000001 -32.685361 5.287197 19.379296 52.711008 -5.806082 2.010541 -18.936375 -7.362608 -16.559736 -1.594032 -0.000009 -0.000005 -0.000000 0.000003 0.000000 -20.752749 -9.741377 -33.735868 52.419591 -3.167899 -6.297569 -22.991110 -9.623953 26.517006 -0.012997 0.000020 -0.000002 -0.000000 0.000001 -0.000000 
3.642986 77.474190 0.024442 -1.231690 -48.102799 2.617523 9.714549 6.846629 -0.127176 3.267510 1.496166 -0.078648 3.276280 1.499634 -0.067335 2.064405 10.302559 3.272651 5.670767 14.176589 -2.746943 0.000001 -0.000001 -0.000000 1.007154 1.348544 -6.014191 -56.983172 2.791037 -54.215310 0.000050 -107.712828 0.000054 -1.834985 -8.640054 -6.636254 -6.141227 -11.690799 -6.761687 9.914102 42.595522 3.409878 -0.422816 8.108085 27.509130 0.000001 -0.000003 0.000001 0.255311 3.378220 -45.814341 5.654095 5.847750 -88.067455 2.162143 4.544808 -50.866379 0.000000 -0.000001 -0.000004 -0.461471 3.841594 -39.722683 6.450755 5.820349 -95.892871 2.182888 4.561564 -51.127743 -0.000000 -0.000000 -0.000003 0.469719 4.966829 -39.799437 8.181044 5.368613 -113.503011 3.200489 5.218115 -63.022975 -0.000001 0.000000 -0.000001 -3.762437 9.063696 -45.253825 5.342535 5.829007 -85.005297 8.716833 5.103326 -119.369153 -0.000001 -0.000000 0.000000 4.103304 11.770440 -6.028312 -57.786269 22.920165 85.455529 0.000069 101.492800 -0.000080 -2.920859 18.708078 8.018311 -7.341098 13.749663 7.412328 9.855794 -44.489083 -3.903271 -0.115780 -14.513090 -28.973850 -0.000001 -0.000001 0.000001 -0.124375 -2.384787 45.108857 4.500593 -4.654538 88.071164 1.723218 -3.618379 50.920102 0.000001 -0.000002 0.000001 -0.761618 -2.932903 39.031051 5.133880 -4.632758 95.881656 1.739742 -3.631704 51.181350 -0.000000 0.000000 -0.000000 0.154765 -4.068821 39.122668 6.509734 -4.273597 113.462884 2.549591 -4.153918 63.067337 -0.000001 0.000000 -0.000001 -4.198871 -8.025512 44.637783 4.252917 -4.639649 85.014805 6.935970 -4.062628 119.322271 0.000003 0.000000 0.000000 -31.391515 5.759037 18.421789 49.526074 -4.615253 0.932811 -17.885569 -7.385532 -15.512041 -1.594032 -0.000012 -0.000005 0.000000 -0.000002 -0.000000 -21.454073 -10.616740 -32.981474 48.081014 -3.066480 -7.606551 -19.911659 -8.969712 26.824202 -0.012997 0.000019 -0.000002 -0.000000 -0.000001 -0.000000 
4.493147 79.095840 0.952529 -0.716148 -48.613841 2.823902 10.183617 6.068714 0.781936 3.983407 1.331831 0.558782 3.991559 1.336028 0.568629 2.999856 8.536137 2.786732 4.609022 10.349835 -1.806601 0.000001 -0.000001 -0.000001 1.505993 -1.699205 -5.613077 -57.314262 0.685608 -56.165714 0.000091 -109.414856 0.000096 -3.014799 -8.401428 -0.421626 -6.141225 -11.690800 -6.761688 9.914103 42.595522 3.409878 -0.422813 8.108088 27.509126 -0.000000 0.000001 0.000000 0.255309 3.378217 -45.814341 5.654094 5.847750 -88.067455 2.162140 4.544806 -50.866382 0.000001 -0.000001 -0.000002 -0.461472 3.841589 -39.722679 6.450758 5.820348 -95.892871 2.182888 4.561567 -51.127740 -0.000001 -0.000001 -0.000002 0.469720 4.966826 -39.799437 8.181043 5.368612 -113.503011 3.200487 5.218116 -63.022968 0.000002 0.000000 0.000001 -3.762436 9.063692 -45.253825 5.342534 5.829007 -85.005297 8.716835 5.103329 -119.369153 -0.000000 0.000001 -0.000000 4.255705 10.155325 -6.309203 -61.106533 20.587560 86.743184 0.000424 99.212609 -0.000460 1.713180 19.613020 7.456945 -7.341097 13.749663 7.412330 9.855793 -44.489093 -3.903267 -0.115783 -14.513083 -28.973850 0.000001 0.000001 0.000001 -0.124376 -2.384788 45.108857 4.500588 -4.654536 88.071164 1.723217 -3.618381 50.920102 -0.000001 0.000001 -0.000000 -0.761618 -2.932901 39.031048 5.133884 -4.632754 95.881649 1.739739 -3.631707 51.181360 0.000001 -0.000001 0.000000 0.154763 -4.068815 39.122668 6.509732 -4.273595 113.462884 2.549590 -4.153918 63.067337 0.000001 -0.000000 0.000002 -4.198873 -8.025512 44.637779 4.252915 -4.639648 85.014805 6.935972 -4.062626 119.322271 0.000000 0.000000 -0.000000 -30.262557 6.793920 17.212007 47.305074 -4.909431 0.639680 -16.971668 -6.588297 -13.827076 -1.594032 -0.000009 -0.000005 -0.000000 0.000002 -0.000000 -21.222257 -11.542600 -32.950246 44.224300 -2.497608 -7.826340 -17.277565 -8.220210 26.809698 -0.012997 0.000019 -0.000001 -0.000000 -0.000000 0.000000 
